<svg xmlns="http://www.w3.org/2000/svg" viewBox="0 0 40 40">
  <defs>
    <linearGradient id="a" data-name="Unbenannter Verlauf" x1="0" y1="20" x2="40" y2="20" gradientUnits="userSpaceOnUse">
      <stop offset="0" stop-color="#ff006e"/>
      <stop offset="1" stop-color="#b82f67"/>
    </linearGradient>
  </defs>
  <circle cx="20" cy="20" r="20" fill="url(#a)"/>
  <path d="M20 15.53c-2.45 0-4.47 2.02-4.47 4.47v4.47H20c2.45 0 4.47-2.02 4.47-4.47 0-2.45-2.02-4.47-4.47-4.47m-4.47 13.46c1.39.69 2.92 1.05 4.47 1.05 5.51 0 10.04-4.54 10.04-10.04 0-5.51-4.54-10.03-10.04-10.04C14.49 9.96 9.97 14.5 9.96 20c0 1.55.36 3.08 1.05 4.47h1.81V20c0-3.94 3.24-7.18 7.18-7.19 3.94 0 7.18 3.25 7.19 7.19 0 3.94-3.25 7.18-7.19 7.19h-4.47V29ZM20 32.76c-2.3 0-4.55-.62-6.52-1.79l-.66-.39V27.2H9.44l-.39-.66a12.8 12.8 0 0 1-1.79-6.53c0-6.99 5.76-12.75 12.76-12.76 7 0 12.75 5.76 12.76 12.76 0 7-5.76 12.75-12.76 12.76" fill="#fff"/>
</svg>
