<svg xmlns="http://www.w3.org/2000/svg" viewBox="0 0 170.08 50">
  <defs>
    <linearGradient id="a" data-name="Unbenannter Verlauf 3" x1="8.35" y1="-552.95" x2="48.35" y2="-552.95" gradientTransform="matrix(1 0 0 -1 0 -527.95)" gradientUnits="userSpaceOnUse">
      <stop offset="0" stop-color="#ff006e"/>
      <stop offset="1" stop-color="#b82f67"/>
    </linearGradient>
  </defs>
  <path d="M55.74 36.64v-5.77h.45v2.57h3.22v-2.57h.44v5.77h-.44v-2.8h-3.22v2.8h-.45Zm7.45-2.92c0-1.59.44-2.93 2.36-2.93s2.35 1.34 2.35 2.93-.43 3.01-2.35 3.01-2.36-1.39-2.36-3.01Zm.47 0c0 1.31.27 2.63 1.89 2.63s1.88-1.32 1.88-2.63-.26-2.54-1.88-2.54c-1.62-.01-1.89 1.22-1.89 2.54Zm10.31 2.19h.02l2.15-5.03h.57v5.77h-.44v-4.9h-.03l-2.11 4.9h-.34l-2.1-4.9h-.02v4.9h-.44v-5.77h.58l2.16 5.03Zm8.95 0h.02l2.15-5.03h.57v5.77h-.44v-4.9h-.02l-2.11 4.9h-.35l-2.1-4.9h-.02v4.9h-.44v-5.77h.58l2.16 5.03Zm9.39.73v-5.77h.45v5.77h-.45Zm3.9 0v-5.77h.45l3.3 4.94h.02v-4.94h.43v5.77h-.44l-3.3-4.9h-.02v4.9h-.44Zm9.51-5.36v5.36h-.44v-5.36h-1.67v-.41h3.78v.41h-1.67Zm8.35 0h-3.03v2.16h2.65v.4h-2.65v2.4h3.07v.4h-3.52v-5.77h3.48v.41Zm6.89 5.36-1.54-2.43h-1.62v2.43h-.45v-5.77h2.29c1.09 0 1.65.75 1.65 1.66 0 .85-.5 1.51-1.41 1.6l1.59 2.5h-.51Zm-3.16-2.84h1.74c.78 0 1.31-.47 1.31-1.26 0-.73-.46-1.26-1.25-1.26h-1.8v2.52Zm10.37 1.22h-2.58l-.59 1.62h-.47l2.11-5.81h.55l2.04 5.81h-.49l-.57-1.62Zm-1.28-3.64-1.2 3.26h2.38l-1.17-3.26h-.01Zm7.52-.59c.63 0 1.25.08 1.91.28l-.1.38c-.86-.21-1.29-.25-1.77-.25-1.6 0-1.93 1.2-1.93 2.52 0 1.4.32 2.61 1.93 2.61.48 0 .92-.04 1.77-.25l.1.38c-.66.19-1.28.27-1.91.27-1.92 0-2.36-1.36-2.36-3.01s.44-2.93 2.36-2.93Zm7.1.49v5.36h-.44v-5.36h-1.67v-.41h3.78v.41h-1.67Zm4.86 5.36v-5.77h.45v5.77h-.45Zm6-.5 1.83-5.26h.47l-2.04 5.81h-.55l-2.11-5.81h.5l1.9 5.26Zm8.94-4.86h-3.03v2.16h2.65v.4h-2.65v2.4h3.07v.4h-3.52v-5.77h3.48v.41Z"/>
  <text transform="translate(55.37 24.89)" font-family="Prelo-ExtraBold, Prelo" font-size="17.2" font-weight="700"><tspan x="0" y="0" letter-spacing=".02em">PIXX.</tspan><tspan x="42.54" y="0" letter-spacing="0em">I</tspan><tspan x="46.99" y="0" letter-spacing=".02em">O</tspan></text>
  <circle cx="28.35" cy="25" r="20" fill="url(#a)"/>
  <path data-name="icon" d="M28.48 20.53c-2.45 0-4.47 2.02-4.47 4.47v4.47h4.47c2.45 0 4.47-2.02 4.47-4.47 0-2.45-2.02-4.47-4.47-4.47m-4.47 13.46c1.39.69 2.92 1.05 4.47 1.05 5.51 0 10.04-4.54 10.04-10.04 0-5.51-4.54-10.03-10.04-10.04-5.51 0-10.03 4.54-10.04 10.04 0 1.55.36 3.08 1.05 4.47h1.81V25c0-3.94 3.24-7.18 7.18-7.19 3.94 0 7.18 3.25 7.19 7.19 0 3.94-3.25 7.18-7.19 7.19h-4.47V34Zm4.47 3.77c-2.3 0-4.55-.62-6.52-1.79l-.66-.39V32.2h-3.38l-.39-.66a12.8 12.8 0 0 1-1.79-6.53c0-6.99 5.76-12.75 12.76-12.76 7 0 12.75 5.76 12.76 12.76 0 7-5.76 12.75-12.76 12.76" fill="#fff"/>
</svg>
