<svg xmlns="http://www.w3.org/2000/svg" viewBox="0 0 25.51 25.51">
  <path d="M12.76 8.29c-2.45 0-4.47 2.02-4.47 4.47v4.47h4.47c2.45 0 4.47-2.02 4.47-4.47 0-2.45-2.02-4.47-4.47-4.47M8.29 21.75c1.39.69 2.92 1.05 4.47 1.05 5.51 0 10.04-4.54 10.04-10.04 0-5.51-4.54-10.03-10.04-10.04-5.51 0-10.03 4.54-10.04 10.04 0 1.55.36 3.08 1.05 4.47h1.81v-4.47c0-3.94 3.24-7.18 7.18-7.19 3.94 0 7.18 3.25 7.19 7.19 0 3.94-3.25 7.18-7.19 7.19H8.29v1.81Zm4.47 3.76c-2.3 0-4.55-.62-6.52-1.79l-.66-.39v-3.38H2.2l-.39-.66A12.679 12.679 0 0 1 0 12.76C0 5.76 5.76 0 12.76 0s12.75 5.76 12.76 12.76c0 7-5.76 12.75-12.76 12.76"/>
</svg>
